<svg height="710.139pt" viewBox="0 0 854.8 710.139" width="854.8pt" xmlns="http://www.w3.org/2000/svg" xmlns:xlink="http://www.w3.org/1999/xlink"><clipPath id="a"><path d="m98 70h3v640.140625h-3zm0 0"/></clipPath><symbol id="b" overflow="visible"><path d="m5.0625-3.0625 4.21875-4.109375c6.21875-5.5 8.609375-7.65625 8.609375-11.640625 0-4.53125-3.59375-7.71875-8.453125-7.71875-4.5 0-7.4375 3.65625-7.4375 7.203125 0 2.234375 1.984375 2.234375 2.109375 2.234375.671875 0 2.0625-.484375 2.0625-2.109375 0-1.03125-.71875-2.078125-2.109375-2.078125-.3125 0-.390625 0-.515625.046875.921875-2.59375 3.0625-4.0625 5.375-4.0625 3.625 0 5.34375 3.21875 5.34375 6.484375 0 3.1875-2 6.34375-4.1875 8.8125l-7.640625 8.53125c-.4375.4375-.4375.515625-.4375 1.46875h14.78125l1.109375-6.9375h-1c-.203125 1.203125-.46875 2.953125-.875 3.546875-.28125.328125-2.90625.328125-3.78125.328125zm0 0"/></symbol><symbol id="c" overflow="visible"><path d="m18.328125-12.75c0-3.1875-.203125-6.375-1.59375-9.328125-1.828125-3.828125-5.09375-4.453125-6.765625-4.453125-2.390625 0-5.3125 1.03125-6.9375 4.734375-1.28125 2.75-1.484375 5.859375-1.484375 9.046875 0 2.984375.171875 6.578125 1.796875 9.609375 1.71875 3.21875 4.625 4.015625 6.578125 4.015625 2.15625 0 5.171875-.828125 6.9375-4.625 1.265625-2.75 1.46875-5.859375 1.46875-9zm-8.40625 12.75c-1.546875 0-3.90625-1-4.625-4.828125-.4375-2.390625-.4375-6.046875-.4375-8.40625 0-2.546875 0-5.171875.328125-7.328125.75-4.734375 3.734375-5.09375 4.734375-5.09375 1.3125 0 3.9375.71875 4.703125 4.65625.390625 2.234375.390625 5.265625.390625 7.765625 0 3 0 5.703125-.4375 8.25-.59375 3.78125-2.859375 4.984375-4.65625 4.984375zm0 0"/></symbol><symbol id="d" overflow="visible"><path d="m11.71875-6.578125v3.46875c0 1.4375-.078125 1.875-3.03125 1.875h-.84375v1.234375c1.640625-.125 3.71875-.125 5.390625-.125s3.78125 0 5.40625.125v-1.234375h-.828125c-2.953125 0-3.03125-.4375-3.03125-1.875v-3.46875h3.984375v-1.234375h-3.984375v-18.125c0-.796875 0-1.03125-.640625-1.03125-.359375 0-.46875 0-.796875.46875l-12.234375 18.6875v1.234375zm.234375-1.234375h-9.71875l9.71875-14.859375zm0 0"/></symbol><symbol id="e" overflow="visible"><path d="m5.265625-13.0625v-.96875c0-10.078125 4.9375-11.515625 6.96875-11.515625.953125 0 2.625.25 3.5 1.59375-.59375 0-2.1875 0-2.1875 1.796875 0 1.234375.953125 1.828125 1.828125 1.828125.640625 0 1.84375-.34375 1.84375-1.90625 0-2.390625-1.765625-4.296875-5.0625-4.296875-5.109375 0-10.484375 5.140625-10.484375 13.9375 0 10.640625 4.625 13.46875 8.328125 13.46875 4.421875 0 8.203125-3.75 8.203125-9 0-5.0625-3.546875-8.890625-7.96875-8.890625-2.703125 0-4.171875 2.03125-4.96875 3.953125zm4.734375 12.828125c-2.515625 0-3.703125-2.390625-3.9375-3-.71875-1.859375-.71875-5.046875-.71875-5.765625 0-3.109375 1.265625-7.09375 4.859375-7.09375.640625 0 2.46875 0 3.703125 2.46875.71875 1.46875.71875 3.5.71875 5.453125 0 1.921875 0 3.90625-.671875 5.34375-1.203125 2.390625-3.03125 2.59375-3.953125 2.59375zm0 0"/></symbol><symbol id="f" overflow="visible"><path d="m6.5-18.203125c-1.84375-1.203125-2-2.5625-2-3.234375 0-2.421875 2.59375-4.109375 5.421875-4.109375 2.90625 0 5.453125 2.078125 5.453125 4.953125 0 2.265625-1.546875 4.171875-3.9375 5.578125zm5.8125 3.78125c2.875-1.46875 4.828125-3.546875 4.828125-6.171875 0-3.671875-3.546875-5.9375-7.171875-5.9375-3.984375 0-7.21875 2.9375-7.21875 6.65625 0 .703125.078125 2.5 1.75 4.375.4375.484375 1.921875 1.46875 2.90625 2.15625-2.3125 1.15625-5.734375 3.375-5.734375 7.328125 0 4.21875 4.0625 6.890625 8.25 6.890625 4.5 0 8.28125-3.3125 8.28125-7.5625 0-1.4375-.4375-3.234375-1.953125-4.90625-.75-.84375-1.390625-1.234375-3.9375-2.828125zm-3.984375 1.671875 4.90625 3.109375c1.109375.75 2.984375 1.953125 2.984375 4.375 0 2.953125-2.984375 5.03125-6.25 5.03125-3.4375 0-6.296875-2.46875-6.296875-5.78125 0-2.3125 1.265625-4.859375 4.65625-6.734375zm0 0"/></symbol><symbol id="g" overflow="visible"><path d="m4.625-2.765625c1.140625-1.1875 1.5-1.53125 4.296875-3.859375.359375-.296875 2.578125-2.140625 3.453125-2.96875 2-1.984375 3.25-3.734375 3.25-4.078125 0-.296875-.265625-.390625-.484375-.390625-.3125 0-.34375.0625-.671875.546875-.984375 1.46875-1.6875 1.71875-2.265625 1.71875-.59375 0-.984375-.25-1.625-.890625-.828125-.796875-1.46875-1.375-2.484375-1.375-2.546875 0-4.140625 2.875-4.140625 3.734375 0 .03125 0 .390625.515625.390625.3125 0 .375-.140625.5-.484375.421875-.921875 1.78125-1.25 2.75-1.25.734375 0 1.5.203125 2.265625.421875 1.328125.34375 1.625.34375 2.34375.34375-.65625.703125-1.546875 1.59375-4.015625 3.609375-1.328125 1.109375-2.671875 2.203125-3.53125 3.03125-2.359375 2.328125-3.375 3.890625-3.375 4.203125 0 .28125.21875.375.46875.375.328125 0 .390625-.09375.546875-.3125.640625-.953125 1.625-1.9375 2.84375-1.9375.734375 0 1.046875.28125 1.65625.890625 1.015625.984375 1.59375 1.359375 2.515625 1.359375 3.3125 0 5.328125-3.953125 5.328125-4.9375 0-.28125-.234375-.40625-.484375-.40625-.359375 0-.421875.1875-.546875.5-.609375 1.59375-2.359375 2.453125-3.953125 2.453125-.59375 0-1.296875-.15625-2.265625-.40625-1.328125-.359375-1.65625-.359375-2.125-.359375-.328125 0-.515625 0-.765625.078125zm0 0"/></symbol><symbol id="h" overflow="visible"><path d="m23.296875-10.609375c.484375 0 1.125 0 1.125-.734375s-.765625-.734375-1.25-.734375h-20.046875c-.484375 0-1.25 0-1.25.734375s.640625.734375 1.125.734375zm-.125 6.75c.484375 0 1.25 0 1.25-.734375s-.640625-.734375-1.125-.734375h-20.296875c-.484375 0-1.125 0-1.125.734375s.765625.734375 1.25.734375zm0 0"/></symbol><symbol id="i" overflow="visible"><path d="m15.59375-10.171875c0-3.40625-.359375-5.484375-1.40625-7.515625-1.40625-2.8125-3.984375-3.515625-5.734375-3.515625-4.015625 0-5.484375 3-5.9375 3.890625-1.140625 2.328125-1.203125 5.484375-1.203125 7.140625 0 2.109375.09375 5.328125 1.625 7.875 1.46875 2.359375 3.8125 2.96875 5.515625 2.96875 1.53125 0 4.265625-.484375 5.859375-3.640625 1.171875-2.296875 1.28125-5.125 1.28125-7.203125zm-7.140625 9.953125c-1.09375 0-3.296875-.515625-3.953125-3.859375-.359375-1.8125-.359375-4.8125-.359375-6.46875 0-2.203125 0-4.4375.359375-6.1875.65625-3.25 3.15625-3.5625 3.953125-3.5625 1.078125 0 3.28125.53125 3.921875 3.4375.375 1.75.375 4.140625.375 6.3125 0 1.875 0 4.75-.375 6.53125-.671875 3.34375-2.875 3.796875-3.921875 3.796875zm0 0"/></symbol><symbol id="j" overflow="visible"><path d="m12.5625-20.625c0-.640625 0-.890625-.671875-.890625-.421875 0-.453125.03125-.765625.484375l-10.171875 14.75v1.046875h8.984375v2.65625c0 1.171875-.09375 1.53125-2.546875 1.53125h-.734375v1.046875c2.71875-.09375 2.78125-.09375 4.59375-.09375s1.875 0 4.59375.09375v-1.046875h-.734375c-2.453125 0-2.546875-.359375-2.546875-1.53125v-2.65625h3.375v-1.046875h-3.375zm-2.390625 2.578125v11.765625h-8.09375zm0 0"/></symbol><symbol id="k" overflow="visible"><path d="m10.015625-20.296875c0-.875-.078125-.90625-.9375-.90625-1.296875 1.28125-2.984375 2.046875-6.015625 2.046875v1.046875c.859375 0 2.578125 0 4.421875-.859375v16.359375c0 1.171875-.09375 1.5625-3.125 1.5625h-1.109375v1.046875c1.3125-.09375 4.046875-.09375 5.484375-.09375s4.203125 0 5.515625.09375v-1.046875h-1.125c-3.015625 0-3.109375-.390625-3.109375-1.5625zm0 0"/></symbol><symbol id="l" overflow="visible"><path d="m10.578125-11.5c1.796875-.875 3.953125-2.46875 3.953125-4.953125 0-3.015625-3.09375-4.75-6.046875-4.75-3.390625 0-6.125 2.328125-6.125 5.328125 0 1.1875.40625 2.265625 1.203125 3.1875.546875.671875.671875.734375 2.65625 1.984375-3.953125 1.75-4.8125 4.078125-4.8125 5.859375 0 3.5 3.53125 5.515625 7.015625 5.515625 3.90625 0 7.0625-2.640625 7.0625-6.03125 0-2-1.078125-3.34375-1.59375-3.890625-.53125-.5-.5625-.53125-3.3125-2.25zm-4.9375-3c-.921875-.546875-1.6875-1.46875-1.6875-2.578125 0-2.015625 2.203125-3.296875 4.46875-3.296875 2.484375 0 4.515625 1.703125 4.515625 3.921875 0 1.859375-1.4375 3.421875-3.3125 4.34375zm1.5625 4.359375c.125.0625 3.765625 2.296875 4.296875 2.65625.515625.28125 2.171875 1.296875 2.171875 3.21875 0 2.453125-2.578125 3.984375-5.1875 3.984375-2.84375 0-5.265625-1.953125-5.265625-4.5625 0-2.390625 1.78125-4.265625 3.984375-5.296875zm0 0"/></symbol><symbol id="m" overflow="visible"><path d="m13.3125-12.03125c.234375-1.03125 1.15625-4.703125 3.9375-4.703125.203125 0 1.15625 0 2 .515625-1.125.203125-1.921875 1.203125-1.921875 2.15625 0 .640625.4375 1.390625 1.515625 1.390625.875 0 2.15625-.71875 2.15625-2.3125 0-2.0625-2.359375-2.625-3.703125-2.625-2.3125 0-3.703125 2.109375-4.1875 3.03125-1-2.640625-3.140625-3.03125-4.296875-3.03125-4.15625 0-6.421875 5.140625-6.421875 6.140625 0 .390625.40625.390625.484375.390625.3125 0 .4375-.078125.515625-.4375 1.34375-4.21875 3.984375-5.21875 5.328125-5.21875.765625 0 2.15625.359375 2.15625 2.671875 0 1.234375-.671875 3.90625-2.15625 9.484375-.625 2.46875-2.03125 4.140625-3.78125 4.140625-.234375 0-1.15625 0-1.984375-.515625.984375-.203125 1.875-1.046875 1.875-2.15625 0-1.078125-.890625-1.390625-1.484375-1.390625-1.1875 0-2.1875 1.03125-2.1875 2.3125 0 1.828125 1.984375 2.625 3.75 2.625 2.625 0 4.0625-2.78125 4.171875-3.03125.484375 1.484375 1.921875 3.03125 4.3125 3.03125 4.09375 0 6.375-5.140625 6.375-6.140625 0-.390625-.359375-.390625-.484375-.390625-.359375 0-.4375.15625-.515625.4375-1.3125 4.265625-4.015625 5.21875-5.296875 5.21875-1.5625 0-2.1875-1.28125-2.1875-2.625 0-.875.234375-1.765625.671875-3.515625zm0 0"/></symbol><symbol id="n" overflow="visible"><path d="m9.34375-17.734375c0-.75-.0625-.78125-.84375-.78125-1.78125 1.75-4.3125 1.78125-5.453125 1.78125v1c.65625 0 2.5 0 4.03125-.78125v14.234375c0 .921875 0 1.28125-2.78125 1.28125h-1.0625v1c.5-.03125 3.9375-.109375 4.96875-.109375.859375 0 4.375.078125 4.984375.109375v-1h-1.0625c-2.78125 0-2.78125-.359375-2.78125-1.28125zm0 0"/></symbol><symbol id="o" overflow="visible"><path d="m14.078125-5.078125h-.9375c-.09375.609375-.359375 2.265625-.734375 2.546875-.21875.15625-2.359375.15625-2.75.15625h-5.140625c2.9375-2.59375 3.90625-3.375 5.578125-4.6875 2.0625-1.640625 3.984375-3.375 3.984375-6.015625 0-3.375-2.953125-5.4375-6.515625-5.4375-3.46875 0-5.8125 2.421875-5.8125 4.984375 0 1.421875 1.203125 1.5625 1.484375 1.5625.671875 0 1.484375-.46875 1.484375-1.46875 0-.515625-.203125-1.484375-1.65625-1.484375.875-1.984375 2.765625-2.59375 4.078125-2.59375 2.78125 0 4.234375 2.171875 4.234375 4.4375 0 2.421875-1.71875 4.34375-2.625 5.359375l-6.71875 6.625c-.28125.25-.28125.3125-.28125 1.09375h11.5zm0 0"/></symbol><g fill="none" stroke-miterlimit="10" transform="matrix(4 0 0 -4 31.476 665.651)"><path d="m51.124164 16.54068v4.252929m34.083008-4.252929v4.252929" stroke="#7f7f7f" stroke-width=".19925"/><path d="m14.91518 40.186188h4.251953m-4.251953 43.039062h4.251953m-4.251953 21.518555h4.251953" stroke="#7f7f7f" stroke-width=".19925"/><path d="m-7.669781 18.666656h192.282226" stroke="#000" stroke-width=".3985"/></g><path d="m777.894531 590.984375-12.753906-6.378906 4.785156 6.378906-4.785156 6.375"/><g clip-path="url(#a)"><path d="m17.041156-10.923187v159.404296" fill="none" stroke="#000" stroke-miterlimit="10" stroke-width=".3985" transform="matrix(4 0 0 -4 31.476 665.651)"/></g><path d="m99.640625 63.757812-6.375 12.75 6.375-4.78125 6.378906 4.78125"/><g><use x="216.044" xlink:href="#b" y="639.251"/><use x="235.9692" xlink:href="#c" y="639.251"/></g><g><use x="352.372" xlink:href="#d" y="639.251"/><use x="372.2972" xlink:href="#c" y="639.251"/></g><g><use x="37.208" xlink:href="#b" y="517.747"/><use x="57.1332" xlink:href="#c" y="517.747"/></g><g><use x="37.208" xlink:href="#e" y="345.595"/><use x="57.1332" xlink:href="#c" y="345.595"/></g><g><use x="37.208" xlink:href="#f" y="259.519"/><use x="57.1332" xlink:href="#c" y="259.519"/></g><path d="m17.041156 18.666656h68.166016v21.519532l-34.083008 43.039062-34.083008 21.518555zm0 0" fill="#e5e5e5" stroke="#000" stroke-miterlimit="10" stroke-width=".3985" transform="matrix(4 0 0 -4 31.476 665.651)"/><path d="m241.609375 332.75c0-3.113281-2.523437-5.636719-5.636719-5.636719-3.113281 0-5.636718 2.523438-5.636718 5.636719s2.523437 5.636719 5.636718 5.636719c3.113282 0 5.636719-2.523438 5.636719-5.636719zm0 0"/><path d="m.00014062 34.806305 1.63476538-1.548828 1.635742-1.548829 1.634766-1.548828 1.635742-1.547851 1.635742-1.548828 1.634766-1.548828 1.635742-1.548829 1.634766-1.548828 1.635742-1.548828 1.634766-1.548828 1.635742-1.548828 1.634766-1.548828 1.635742-1.548828 1.634765-1.548828 1.635743-1.548829 1.635742-1.547851 1.634765-1.548828 1.635743-1.548828 1.634765-1.548829 1.635742-1.548828 1.634766-1.548828 1.635742-1.548828" fill="none" stroke="#f00" stroke-dasharray="2.98883 2.98883" stroke-miterlimit="10" stroke-width=".3985" transform="matrix(4 0 0 -4 31.476 665.651)"/><use fill="#f00" x="135.776" xlink:href="#g" y="697.339"/><use fill="#f00" x="162.288" xlink:href="#h" y="697.339"/><use fill="#f00" x="198.038681" xlink:href="#i" y="697.339"/><path d="m.00014062 56.325836 1.63476538-1.548828 1.635742-1.548828 1.634766-1.548828 3.271484-3.097657 1.634766-1.548828 1.635742-1.547851 1.634766-1.548828 1.635742-1.548829 1.634766-1.548828 1.635742-1.548828 1.634766-1.548828 1.635742-1.548828 1.634765-1.548828 3.271485-3.097656 1.634765-1.548829 1.635743-1.548828 1.634765-1.547851 1.635742-1.548828 1.634766-1.548829 1.635742-1.548828 1.634766-1.548828 1.635742-1.548828 1.634766-1.548828 3.271484-3.097656 1.634766-1.548828 1.635742-1.548829 1.634765-1.548828 1.635743-1.547851 1.634765-1.548828 1.635742-1.548828 1.634766-1.548829 1.635742-1.548828 1.634766-1.548828" fill="none" stroke="#f00" stroke-dasharray="2.98883 2.98883" stroke-miterlimit="10" stroke-width=".3985" transform="matrix(4 0 0 -4 31.476 665.651)"/><use fill="#f00" x="281.032" xlink:href="#g" y="697.991"/><use fill="#f00" x="307.544" xlink:href="#h" y="697.991"/><g fill="#f00"><use x="343.294681" xlink:href="#j" y="697.991"/><use x="360.232737" xlink:href="#i" y="697.991"/></g><path d="m.00014062 131.643219 1.63476538-1.548828 1.635742-1.548828 1.634766-1.548829 1.635742-1.547851 1.635742-1.548828 1.634766-1.548828 1.635742-1.548829 1.634766-1.548828 1.635742-1.548828 1.634766-1.548828 1.635742-1.548828 1.634766-1.548828 1.635742-1.548828 1.634765-1.548828 1.635743-1.548829 1.635742-1.547851 1.634765-1.548828 1.635743-1.548828 1.634765-1.548828 1.635742-1.548829 1.634766-1.548828 1.635742-1.548828 1.634766-1.548828 1.635742-1.548828 1.634766-1.548828 3.271484-3.097656 1.634766-1.547852 1.635742-1.548828 1.634765-1.548828 1.635743-1.548828 1.634765-1.548829 1.635742-1.548828 1.634766-1.548828 1.635742-1.548828 1.634766-1.548828 1.635742-1.548828 1.634766-1.548828 1.635742-1.548828 1.635742-1.547852 1.634766-1.548828 1.635742-1.548828 1.634765-1.548828 1.635743-1.548828 1.634765-1.548829 1.635742-1.548828 1.634766-1.548828 1.635742-1.548828 1.634766-1.548828 3.271484-3.097656 1.634766-1.547852 1.635742-1.548828 1.634766-1.548828 1.635742-1.548828 1.634766-1.548828 1.635742-1.548829 1.634765-1.548828 1.635743-1.548828 1.634765-1.548828 3.271485-3.097656 1.634765-1.548828 1.635742-1.547852 1.634766-1.548828 1.635742-1.548828 1.634766-1.548828 1.635742-1.548828 1.634766-1.548828 1.635742-1.548829 1.634765-1.548828 1.635743-1.548828 1.634765-1.548828 3.271485-3.097656 1.634765-1.547852 1.635742-1.548828 1.634766-1.548828 1.635742-1.548828 1.634766-1.548828 1.635742-1.548828 1.634766-1.548829 1.635742-1.548828 1.634765-1.548828 1.635743-1.54882794" fill="none" stroke="#f00" stroke-dasharray="2.98883 2.98883" stroke-miterlimit="10" stroke-width=".3985" transform="matrix(4 0 0 -4 31.476 665.651)"/><use fill="#f00" x="601.548" xlink:href="#g" y="700.275"/><use fill="#f00" x="628.06" xlink:href="#h" y="700.275"/><g fill="#f00"><use x="663.810681" xlink:href="#k" y="700.275"/><use x="680.748737" xlink:href="#l" y="700.275"/><use x="697.686794" xlink:href="#i" y="700.275"/></g><use x="800.864" xlink:href="#m" y="596.575"/><use x="823.64" xlink:href="#n" y="602.551"/><use x="79.312" xlink:href="#m" y="30.439"/><use x="102.088" xlink:href="#o" y="36.415"/></svg>