<svg height="770.887pt" viewBox="0 0 949.615 770.887" width="949.615pt" xmlns="http://www.w3.org/2000/svg" xmlns:xlink="http://www.w3.org/1999/xlink"><symbol id="a" overflow="visible"><path d="m18.328125-12.75c0-3.1875-.203125-6.375-1.59375-9.328125-1.828125-3.828125-5.09375-4.453125-6.765625-4.453125-2.390625 0-5.3125 1.03125-6.9375 4.734375-1.28125 2.75-1.484375 5.859375-1.484375 9.046875 0 2.984375.171875 6.578125 1.796875 9.609375 1.71875 3.21875 4.625 4.015625 6.578125 4.015625 2.15625 0 5.171875-.828125 6.9375-4.625 1.265625-2.75 1.46875-5.859375 1.46875-9zm-8.40625 12.75c-1.546875 0-3.90625-1-4.625-4.828125-.4375-2.390625-.4375-6.046875-.4375-8.40625 0-2.546875 0-5.171875.328125-7.328125.75-4.734375 3.734375-5.09375 4.734375-5.09375 1.3125 0 3.9375.71875 4.703125 4.65625.390625 2.234375.390625 5.265625.390625 7.765625 0 3 0 5.703125-.4375 8.25-.59375 3.78125-2.859375 4.984375-4.65625 4.984375zm0 0"/></symbol><symbol id="b" overflow="visible"><path d="m11.71875-6.578125v3.46875c0 1.4375-.078125 1.875-3.03125 1.875h-.84375v1.234375c1.640625-.125 3.71875-.125 5.390625-.125s3.78125 0 5.40625.125v-1.234375h-.828125c-2.953125 0-3.03125-.4375-3.03125-1.875v-3.46875h3.984375v-1.234375h-3.984375v-18.125c0-.796875 0-1.03125-.640625-1.03125-.359375 0-.46875 0-.796875.46875l-12.234375 18.6875v1.234375zm.234375-1.234375h-9.71875l9.71875-14.859375zm0 0"/></symbol><symbol id="c" overflow="visible"><path d="m17.890625-8.015625c0-4.734375-3.265625-8.71875-7.578125-8.71875-1.90625 0-3.625.640625-5.046875 2.03125v-7.765625c.796875.234375 2.109375.515625 3.375.515625 4.90625 0 7.703125-3.625 7.703125-4.140625 0-.25-.125-.4375-.40625-.4375-.046875 0-.125 0-.3125.109375-.796875.359375-2.75 1.15625-5.421875 1.15625-1.59375 0-3.421875-.28125-5.296875-1.109375-.328125-.125-.40625-.125-.484375-.125-.390625 0-.390625.328125-.390625.953125v11.796875c0 .71875 0 1.046875.546875 1.046875.28125 0 .359375-.125.515625-.359375.4375-.640625 1.921875-2.796875 5.140625-2.796875 2.078125 0 3.078125 1.828125 3.390625 2.546875.640625 1.484375.71875 3.03125.71875 5.03125 0 1.390625 0 3.78125-.953125 5.453125-.953125 1.546875-2.4375 2.59375-4.265625 2.59375-2.90625 0-5.1875-2.109375-5.859375-4.46875.125.046875.234375.078125.671875.078125 1.328125 0 2-1 2-1.953125s-.671875-1.953125-2-1.953125c-.546875 0-1.9375.28125-1.9375 2.109375 0 3.4375 2.734375 7.296875 7.203125 7.296875 4.625 0 8.6875-3.828125 8.6875-8.890625zm0 0"/></symbol><symbol id="d" overflow="visible"><path d="m6.5-18.203125c-1.84375-1.203125-2-2.5625-2-3.234375 0-2.421875 2.59375-4.109375 5.421875-4.109375 2.90625 0 5.453125 2.078125 5.453125 4.953125 0 2.265625-1.546875 4.171875-3.9375 5.578125zm5.8125 3.78125c2.875-1.46875 4.828125-3.546875 4.828125-6.171875 0-3.671875-3.546875-5.9375-7.171875-5.9375-3.984375 0-7.21875 2.9375-7.21875 6.65625 0 .703125.078125 2.5 1.75 4.375.4375.484375 1.921875 1.46875 2.90625 2.15625-2.3125 1.15625-5.734375 3.375-5.734375 7.328125 0 4.21875 4.0625 6.890625 8.25 6.890625 4.5 0 8.28125-3.3125 8.28125-7.5625 0-1.4375-.4375-3.234375-1.953125-4.90625-.75-.84375-1.390625-1.234375-3.9375-2.828125zm-3.984375 1.671875 4.90625 3.109375c1.109375.75 2.984375 1.953125 2.984375 4.375 0 2.953125-2.984375 5.03125-6.25 5.03125-3.4375 0-6.296875-2.46875-6.296875-5.78125 0-2.3125 1.265625-4.859375 4.65625-6.734375zm0 0"/></symbol><symbol id="e" overflow="visible"><path d="m11.71875-25.5c0-.953125 0-1.03125-.921875-1.03125-2.46875 2.546875-5.96875 2.546875-7.25 2.546875v1.234375c.796875 0 3.140625 0 5.21875-1.03125v20.640625c0 1.421875-.125 1.90625-3.703125 1.90625h-1.28125v1.234375c1.40625-.125 4.859375-.125 6.453125-.125s5.0625 0 6.453125.125v-1.234375h-1.265625c-3.59375 0-3.703125-.4375-3.703125-1.90625zm0 0"/></symbol><symbol id="f" overflow="visible"><path d="m8.984375-6.5c.515625-.484375 1.859375-1.53125 2.359375-1.984375 1.984375-1.8125 3.859375-3.5625 3.859375-6.46875 0-3.796875-3.1875-6.25-7.171875-6.25-3.828125 0-6.34375 2.90625-6.34375 5.75 0 1.5625 1.25 1.78125 1.6875 1.78125.671875 0 1.65625-.484375 1.65625-1.6875 0-1.65625-1.59375-1.65625-1.96875-1.65625.921875-2.328125 3.0625-3.125 4.625-3.125 2.953125 0 4.484375 2.515625 4.484375 5.1875 0 3.3125-2.328125 5.734375-6.078125 9.59375l-4.015625 4.140625c-.390625.359375-.390625.421875-.390625 1.21875h12.59375l.921875-5.703125h-.984375c-.09375.640625-.359375 2.234375-.734375 2.828125-.1875.265625-2.609375.265625-3.125.265625h-5.671875zm0 0"/></symbol><symbol id="g" overflow="visible"><path d="m13.890625-7.234375h9.375c.453125 0 1.15625 0 1.15625-.734375s-.703125-.734375-1.15625-.734375h-9.375v-9.40625c0-.4375 0-1.140625-.71875-1.140625-.734375 0-.734375.703125-.734375 1.140625v9.40625h-9.40625c-.453125 0-1.15625 0-1.15625.734375s.703125.734375 1.15625.734375h9.40625v9.40625c0 .4375 0 1.140625.734375 1.140625.71875 0 .71875-.703125.71875-1.140625zm0 0"/></symbol><symbol id="h" overflow="visible"><path d="m23.296875-10.609375c.484375 0 1.125 0 1.125-.734375s-.765625-.734375-1.25-.734375h-20.046875c-.484375 0-1.25 0-1.25.734375s.640625.734375 1.125.734375zm-.125 6.75c.484375 0 1.25 0 1.25-.734375s-.640625-.734375-1.125-.734375h-20.296875c-.484375 0-1.125 0-1.125.734375s.765625.734375 1.25.734375zm0 0"/></symbol><symbol id="i" overflow="visible"><path d="m10.015625-20.296875c0-.875-.078125-.90625-.9375-.90625-1.296875 1.28125-2.984375 2.046875-6.015625 2.046875v1.046875c.859375 0 2.578125 0 4.421875-.859375v16.359375c0 1.171875-.09375 1.5625-3.125 1.5625h-1.109375v1.046875c1.3125-.09375 4.046875-.09375 5.484375-.09375s4.203125 0 5.515625.09375v-1.046875h-1.125c-3.015625 0-3.109375-.390625-3.109375-1.5625zm0 0"/></symbol><symbol id="j" overflow="visible"><path d="m15.59375-10.171875c0-3.40625-.359375-5.484375-1.40625-7.515625-1.40625-2.8125-3.984375-3.515625-5.734375-3.515625-4.015625 0-5.484375 3-5.9375 3.890625-1.140625 2.328125-1.203125 5.484375-1.203125 7.140625 0 2.109375.09375 5.328125 1.625 7.875 1.46875 2.359375 3.8125 2.96875 5.515625 2.96875 1.53125 0 4.265625-.484375 5.859375-3.640625 1.171875-2.296875 1.28125-5.125 1.28125-7.203125zm-7.140625 9.953125c-1.09375 0-3.296875-.515625-3.953125-3.859375-.359375-1.8125-.359375-4.8125-.359375-6.46875 0-2.203125 0-4.4375.359375-6.1875.65625-3.25 3.15625-3.5625 3.953125-3.5625 1.078125 0 3.28125.53125 3.921875 3.4375.375 1.75.375 4.140625.375 6.3125 0 1.875 0 4.75-.375 6.53125-.671875 3.34375-2.875 3.796875-3.921875 3.796875zm0 0"/></symbol><symbol id="k" overflow="visible"><path d="m10.578125-11.5c1.796875-.875 3.953125-2.46875 3.953125-4.953125 0-3.015625-3.09375-4.75-6.046875-4.75-3.390625 0-6.125 2.328125-6.125 5.328125 0 1.1875.40625 2.265625 1.203125 3.1875.546875.671875.671875.734375 2.65625 1.984375-3.953125 1.75-4.8125 4.078125-4.8125 5.859375 0 3.5 3.53125 5.515625 7.015625 5.515625 3.90625 0 7.0625-2.640625 7.0625-6.03125 0-2-1.078125-3.34375-1.59375-3.890625-.53125-.5-.5625-.53125-3.3125-2.25zm-4.9375-3c-.921875-.546875-1.6875-1.46875-1.6875-2.578125 0-2.015625 2.203125-3.296875 4.46875-3.296875 2.484375 0 4.515625 1.703125 4.515625 3.921875 0 1.859375-1.4375 3.421875-3.3125 4.34375zm1.5625 4.359375c.125.0625 3.765625 2.296875 4.296875 2.65625.515625.28125 2.171875 1.296875 2.171875 3.21875 0 2.453125-2.578125 3.984375-5.1875 3.984375-2.84375 0-5.265625-1.953125-5.265625-4.5625 0-2.390625 1.78125-4.265625 3.984375-5.296875zm0 0"/></symbol><symbol id="l" overflow="visible"><path d="m12.5625-20.625c0-.640625 0-.890625-.671875-.890625-.421875 0-.453125.03125-.765625.484375l-10.171875 14.75v1.046875h8.984375v2.65625c0 1.171875-.09375 1.53125-2.546875 1.53125h-.734375v1.046875c2.71875-.09375 2.78125-.09375 4.59375-.09375s1.875 0 4.59375.09375v-1.046875h-.734375c-2.453125 0-2.546875-.359375-2.546875-1.53125v-2.65625h3.375v-1.046875h-3.375zm-2.390625 2.578125v11.765625h-8.09375zm0 0"/></symbol><symbol id="m" overflow="visible"><path d="m15.96875-12.71875c-1.40625.34375-1.46875 1.59375-1.46875 1.71875 0 .703125.546875 1.1875 1.25 1.1875s1.78125-.546875 1.78125-1.921875c0-1.8125-2.015625-2.328125-3.1875-2.328125-1.5 0-2.703125 1.0625-3.4375 2.296875-.703125-1.6875-2.359375-2.296875-3.671875-2.296875-3.46875 0-5.421875 3.984375-5.421875 4.875 0 .296875.234375.421875.484375.421875.375 0 .4375-.15625.546875-.546875.71875-2.328125 2.640625-3.859375 4.296875-3.859375 1.25 0 1.84375.90625 1.84375 2.046875 0 .640625-.375 2.109375-.640625 3.125-.21875.921875-.921875 3.765625-1.078125 4.359375-.4375 1.734375-1.59375 3.0625-3.03125 3.0625-.125 0-.953125 0-1.625-.4375 1.46875-.359375 1.46875-1.6875 1.46875-1.71875 0-.734375-.578125-1.1875-1.265625-1.1875-.875 0-1.796875.734375-1.796875 1.953125 0 1.453125 1.5625 2.28125 3.1875 2.28125 1.6875 0 2.875-1.265625 3.453125-2.28125.6875 1.546875 2.15625 2.28125 3.6875 2.28125 3.484375 0 5.390625-3.984375 5.390625-4.875 0-.3125-.25-.40625-.484375-.40625-.375 0-.4375.21875-.53125.53125-.640625 2.140625-2.453125 3.859375-4.3125 3.859375-1.046875 0-1.8125-.703125-1.8125-2.03125 0-.640625.1875-1.375.640625-3.15625.21875-.953125.921875-3.765625 1.078125-4.375.453125-1.65625 1.5625-3.03125 3-3.03125.15625 0 .984375 0 1.65625.453125zm0 0"/></symbol><symbol id="n" overflow="visible"><path d="m8.578125-15.1875c0-.703125-.09375-.703125-.8125-.703125-1.578125 1.515625-4.015625 1.515625-4.875 1.515625v.9375c.625 0 2.203125 0 3.640625-.671875v12.078125c0 .78125 0 1.09375-2.46875 1.09375h-1.03125v.9375c1.3125-.09375 3.1875-.09375 4.515625-.09375 1.34375 0 3.203125 0 4.53125.09375v-.9375h-1.03125c-2.46875 0-2.46875-.3125-2.46875-1.09375zm0 0"/></symbol><symbol id="o" overflow="visible"><path d="m12.859375-4.46875h-.875c-.0625.328125-.296875 1.90625-.65625 2.171875-.15625.140625-2.09375.140625-2.4375.140625h-4.46875l3.0625-2.484375c.8125-.640625 2.9375-2.171875 3.6875-2.890625.703125-.71875 1.6875-1.9375 1.6875-3.640625 0-2.984375-2.703125-4.71875-5.90625-4.71875-3.078125 0-5.234375 2.03125-5.234375 4.265625 0 1.21875 1.03125 1.375 1.296875 1.375.59375 0 1.28125-.4375 1.28125-1.296875 0-.53125-.296875-1.296875-1.359375-1.296875.546875-1.21875 2.015625-2.125 3.65625-2.125 2.515625 0 3.859375 1.875 3.859375 3.796875 0 1.703125-1.125 3.453125-2.796875 4.984375l-5.671875 5.1875c-.234375.234375-.265625.265625-.265625 1h10.40625zm0 0"/></symbol><symbol id="p" overflow="visible"><path d="m13.3125-12.03125c.234375-1.03125 1.15625-4.703125 3.9375-4.703125.203125 0 1.15625 0 2 .515625-1.125.203125-1.921875 1.203125-1.921875 2.15625 0 .640625.4375 1.390625 1.515625 1.390625.875 0 2.15625-.71875 2.15625-2.3125 0-2.0625-2.359375-2.625-3.703125-2.625-2.3125 0-3.703125 2.109375-4.1875 3.03125-1-2.640625-3.140625-3.03125-4.296875-3.03125-4.15625 0-6.421875 5.140625-6.421875 6.140625 0 .390625.40625.390625.484375.390625.3125 0 .4375-.078125.515625-.4375 1.34375-4.21875 3.984375-5.21875 5.328125-5.21875.765625 0 2.15625.359375 2.15625 2.671875 0 1.234375-.671875 3.90625-2.15625 9.484375-.625 2.46875-2.03125 4.140625-3.78125 4.140625-.234375 0-1.15625 0-1.984375-.515625.984375-.203125 1.875-1.046875 1.875-2.15625 0-1.078125-.890625-1.390625-1.484375-1.390625-1.1875 0-2.1875 1.03125-2.1875 2.3125 0 1.828125 1.984375 2.625 3.75 2.625 2.625 0 4.0625-2.78125 4.171875-3.03125.484375 1.484375 1.921875 3.03125 4.3125 3.03125 4.09375 0 6.375-5.140625 6.375-6.140625 0-.390625-.359375-.390625-.484375-.390625-.359375 0-.4375.15625-.515625.4375-1.3125 4.265625-4.015625 5.21875-5.296875 5.21875-1.5625 0-2.1875-1.28125-2.1875-2.625 0-.875.234375-1.765625.671875-3.515625zm0 0"/></symbol><symbol id="q" overflow="visible"><path d="m9.34375-17.734375c0-.75-.0625-.78125-.84375-.78125-1.78125 1.75-4.3125 1.78125-5.453125 1.78125v1c.65625 0 2.5 0 4.03125-.78125v14.234375c0 .921875 0 1.28125-2.78125 1.28125h-1.0625v1c.5-.03125 3.9375-.109375 4.96875-.109375.859375 0 4.375.078125 4.984375.109375v-1h-1.0625c-2.78125 0-2.78125-.359375-2.78125-1.28125zm0 0"/></symbol><symbol id="r" overflow="visible"><path d="m14.078125-5.078125h-.9375c-.09375.609375-.359375 2.265625-.734375 2.546875-.21875.15625-2.359375.15625-2.75.15625h-5.140625c2.9375-2.59375 3.90625-3.375 5.578125-4.6875 2.0625-1.640625 3.984375-3.375 3.984375-6.015625 0-3.375-2.953125-5.4375-6.515625-5.4375-3.46875 0-5.8125 2.421875-5.8125 4.984375 0 1.421875 1.203125 1.5625 1.484375 1.5625.671875 0 1.484375-.46875 1.484375-1.46875 0-.515625-.203125-1.484375-1.65625-1.484375.875-1.984375 2.765625-2.59375 4.078125-2.59375 2.78125 0 4.234375 2.171875 4.234375 4.4375 0 2.421875-1.71875 4.34375-2.625 5.359375l-6.71875 6.625c-.28125.25-.28125.3125-.28125 1.09375h11.5zm0 0"/></symbol><g fill="none" stroke-miterlimit="10" transform="matrix(4 0 0 -4 95.64 709.339)"><path d="m.00015625-2.126188v4.25293m86.34082075-4.25293v4.25293m21.585937-4.25293v4.25293m64.755859-4.25293v4.25293" stroke="#7f7f7f" stroke-width=".19925"/><path d="m-2.12582-.00021094h4.251953m-4.251953 117.37890594h4.251953m-4.251953 29.344727h4.251953" stroke="#7f7f7f" stroke-width=".19925"/><path d="m.00015625-.00021094h192.27539075" stroke="#000" stroke-width=".3985"/></g><path d="m872.710938 709.339844-12.753907-6.375 4.785157 6.375-4.785157 6.375"/><path d="m.00015625-.00021094v159.40331994" fill="none" stroke="#000" stroke-miterlimit="10" stroke-width=".3985" transform="matrix(4 0 0 -4 95.64 709.339)"/><path d="m95.640625 63.757812-6.375 12.75 6.375-4.78125 6.375 4.78125"/><use x="85.68" xlink:href="#a" y="757.603"/><use x="421.076" xlink:href="#b" y="757.603"/><use x="441.0012" xlink:href="#a" y="757.603"/><use x="507.416" xlink:href="#c" y="757.603"/><use x="527.3412" xlink:href="#a" y="757.603"/><use x="766.436" xlink:href="#d" y="757.603"/><use x="786.3612" xlink:href="#a" y="757.603"/><use x="53.132" xlink:href="#a" y="722.179"/><use x="33.208" xlink:href="#d" y="252.671"/><use x="53.1332" xlink:href="#a" y="252.671"/><use x="13.284" xlink:href="#e" y="135.295"/><use x="33.2092" xlink:href="#a" y="135.295"/><use x="53.1344" xlink:href="#a" y="135.295"/><path d="m95.640625 709.339844h345.363281v-117.378906l-172.679687-234.757813-172.683594-117.378906zm0 0" fill="#ffd9d9"/><path d="m101.277344 709.339844c0-3.113282-2.523438-5.636719-5.636719-5.636719s-5.636719 2.523437-5.636719 5.636719c0 3.113281 2.523438 5.636718 5.636719 5.636718s5.636719-2.523437 5.636719-5.636718zm0 0"/><path d="m446.640625 709.339844c0-3.113282-2.523437-5.636719-5.636719-5.636719-3.113281 0-5.636718 2.523437-5.636718 5.636719 0 3.113281 2.523437 5.636718 5.636718 5.636718 3.113282 0 5.636719-2.523437 5.636719-5.636718zm0 0"/><path d="m446.640625 591.960938c0-3.113282-2.523437-5.636719-5.636719-5.636719-3.113281 0-5.636718 2.523437-5.636718 5.636719 0 3.113281 2.523437 5.636718 5.636718 5.636718 3.113282 0 5.636719-2.523437 5.636719-5.636718zm0 0"/><path d="m273.957031 357.203125c0-3.113281-2.523437-5.636719-5.632812-5.636719-3.113281 0-5.636719 2.523438-5.636719 5.636719s2.523438 5.636719 5.636719 5.636719c3.109375 0 5.632812-2.523438 5.632812-5.636719zm0 0"/><path d="m101.277344 239.824219c0-3.113281-2.523438-5.636719-5.636719-5.636719s-5.636719 2.523438-5.636719 5.636719 2.523438 5.636719 5.636719 5.636719 5.636719-2.523438 5.636719-5.636719zm0 0"/><path d="m.00015625 146.723422.54199175-.737305.542969-.737305 1.083985-1.474609.542968-.737305 1.083985-1.474609.542968-.737305 1.083985-1.474609.542969-.737305.541992-.737304.542968-.737305 1.083985-1.474609.542969-.737305 1.083984-1.47461.542969-.737304 1.083984-1.47461.542969-.737304 1.083984-1.47461.542969-.737304.541992-.737305.542969-.737305 1.083984-1.474609.542969-.737305 1.083984-1.474609.542969-.737305 1.083985-1.474609.542968-.737305 1.083985-1.474609.542968-.737305.541993-.737305.542968-.737304 1.083985-1.47461.542968-.737304 1.083985-1.47461.542969-.737304 1.083984-1.47461.542969-.737305.541992-.737304.542969-.737305 1.083984-1.474609.542969-.737305 1.083984-1.474609.542969-.737305 1.083984-1.474609.542969-.737305 1.083984-1.474609.542969-.737305.541992-.737305.542969-.737305 1.083985-1.474609.542968-.737305 1.083985-1.474609.542968-.737305 1.083985-1.474609.542969-.737305 1.083984-1.474609.542969-.737305.541992-.737304.542969-.737305 1.083984-1.47461.542969-.737304 1.083984-1.47461.542969-.737304 1.083984-1.47461.542969-.737304.541992-.737305.542969-.737305 1.083984-1.474609.542969-.737305 1.083984-1.474609.542969-.737305 1.083985-1.474609.542968-.737305 1.083985-1.474609.542968-.737305.541993-.737305.542968-.737304 1.083985-1.47461.542968-.737304 1.083985-1.47461.542969-.737304 1.083984-1.47461.542969-.737305 1.083984-1.474609.542969-.737305.541992-.737304.542969-.737305 1.083984-1.474609.542969-.737305 1.083984-1.474609.542969-.737305 1.083984-1.474609.542969-.737305.541992-.737305.542969-.737305 1.083984-1.474609.542969-.737305 1.083985-1.474609.542968-.737305 1.083985-1.474609.542968-.737305 1.083985-1.474609.542969-.737305.541992-.737304.542969-.737305 1.083984-1.47461.542969-.737304 1.083984-1.47461.542969-.737304 1.083984-1.47461.542969-.737304 1.083984-1.47461.542969-.737304.541992-.737305.542969-.737305 1.083984-1.474609.542969-.737305 1.083984-1.474609.542969-.737305 1.083985-1.474609.542968-.737305.541993-.737305.542968-.737304 1.083985-1.47461.542968-.737304 1.083985-1.47461.542969-.737304 1.083984-1.47461.542969-.737305 1.083984-1.474609.542969-.737305.541992-.737304.542969-.737305 1.083984-1.474609.542969-.737305 1.083984-1.474609.542969-.737305 1.083984-1.474609.542969-.737305.541992-.737305.542969-.737305 1.083984-1.474609.542969-.737305 1.083985-1.47460894" fill="none" stroke="#000" stroke-miterlimit="10" stroke-width=".3985" transform="matrix(4 0 0 -4 95.64 709.339)"/><use x="174.476" xlink:href="#f" y="191.979"/><use x="191.412" xlink:href="#m" y="191.979"/><use x="210.48" xlink:href="#n" y="196.407"/><use x="234.612" xlink:href="#g" y="191.979"/><use x="268.484" xlink:href="#m" y="191.979"/><use x="287.552" xlink:href="#o" y="196.407"/><use x="313.564" xlink:href="#h" y="191.979"/><use x="349.314681" xlink:href="#i" y="191.979"/><use x="366.252737" xlink:href="#j" y="191.979"/><use x="383.190794" xlink:href="#j" y="191.979"/><path d="m.00015625 117.378695.86718775-.589843 1.736328-1.179688.867187-.589844.868164-.589843.867188-.589844.868164-.589844.867187-.589844 1.736329-1.179687.867187-.589844.868164-.589844.867188-.589843.868164-.589844.867187-.589844 1.736328-1.179687.867188-.589844.868164-.589844.867187-.589844.868164-.589843.867188-.589844 1.736328-1.179688.867188-.589843.868164-.589844.867187-.589844 1.736328-1.179687.867188-.589844.868164-.589844.867187-.589844.868164-.589843.867188-.589844 1.736328-1.179688.867188-.589843.868164-.589844.867187-.589844.868164-.589844.867188-.589843 1.736328-1.179688.867187-.589844.868164-.589843.867188-.589844.868164-.589844.867187-.589844 1.736329-1.179687.867187-.589844.868164-.589844.867188-.589843.868164-.589844.867187-.589844 1.736328-1.179687.867188-.589844.868164-.589844.867187-.589844 1.736329-1.179687.867187-.589844.868164-.589844.867188-.589843.868164-.589844.867187-.589844 1.736328-1.179687.867188-.589844.868164-.589844.867187-.589844.868164-.589843.867188-.589844 1.736328-1.179688.867188-.589843.868164-.589844.867187-.589844.868164-.589844.867188-.589843 1.736328-1.179688.867187-.589844.868164-.589843.867188-.589844.868164-.589844.867187-.589844 1.736329-1.179687.867187-.589844.868164-.589844.867188-.589843.868164-.589844.867187-.589844 1.736328-1.179687.867188-.589844.868164-.589844.867187-.589844 1.736328-1.179687.867188-.589844.868164-.589844.867188-.589843.868164-.589844.867187-.589844 1.736328-1.179687.867188-.589844.868164-.589844.867187-.589844.868164-.589843.867188-.589844 1.736328-1.179688.867187-.589843.868165-.589844.867187-.589844.868164-.589844.867188-.589843 1.736328-1.179688.867187-.589844.868164-.589843.867188-.589844.868164-.589844.867187-.589844 1.736328-1.179687.867188-.589844.868164-.589844.867188-.589843 1.736328-1.179688.867187-.589844.868164-.589843.867188-.589844.868164-.589844.867187-.589844 1.736328-1.179687.867188-.589844.868164-.589844.867187-.589843.868165-.589844.867187-.589844 1.736328-1.179687.867188-.589844.868164-.589844.867187-.589844.868164-.589843.867188-.589844 1.736328-1.179688.867187-.589843.868164-.589844.867188-.589844.868164-.589844.867188-.589843 1.736328-1.179688.867187-.589844.868164-.589843.867188-.589844.868164-.589844.867187-.589844 1.736328-1.179687.867188-.589844.868164-.589844.867187-.589843 1.736329-1.179688.867187-.589844.868164-.589843.867188-.589844.868164-.589844.867187-.589844 1.736328-1.179687.867188-.589844.868164-.589844.867187-.589843.868164-.589844.867188-.589844 1.736328-1.179687.867188-.589844.868164-.589844.867187-.589844.868164-.589843.867188-.589844 1.736328-1.179688.867187-.589843.868164-.589844.867188-.58984394" fill="none" stroke="#000" stroke-miterlimit="10" stroke-width=".3985" transform="matrix(4 0 0 -4 95.64 709.339)"/><use x="524.152" xlink:href="#m" y="503.027"/><use x="543.22" xlink:href="#n" y="507.455"/><use x="567.352" xlink:href="#g" y="503.027"/><use x="601.224" xlink:href="#m" y="503.027"/><use x="620.292" xlink:href="#o" y="507.455"/><use x="646.304" xlink:href="#h" y="503.027"/><use x="682.054681" xlink:href="#k" y="503.027"/><use x="698.992737" xlink:href="#j" y="503.027"/><path d="m86.340977-.00021094v161.39550794" fill="none" stroke="#000" stroke-miterlimit="10" stroke-width=".3985" transform="matrix(4 0 0 -4 95.64 709.339)"/><use x="455.08" xlink:href="#m" y="330.055"/><use x="474.148" xlink:href="#n" y="334.479"/><use x="500.16" xlink:href="#h" y="330.055"/><use x="535.910681" xlink:href="#l" y="330.055"/><use x="552.848737" xlink:href="#j" y="330.055"/><use x="895.68" xlink:href="#p" y="714.931"/><use x="918.456" xlink:href="#q" y="720.907"/><use x="75.316" xlink:href="#p" y="30.439"/><use x="98.092" xlink:href="#r" y="36.419"/></svg>